<svg id="Layer_1" data-name="Layer 1" xmlns="http://www.w3.org/2000/svg" viewBox="0 0 204.09 84.15"><defs><style>.cls-1{fill:#8c9196;}.cls-2{fill:#00aff0;}</style></defs><title>NEXT_GEN_PRI_RGB_POS_L</title><polygon class="cls-1" points="135.77 56.48 131.58 56.48 127.63 72.53 131.31 74.56 133.66 63.09 136 74.56 131.31 74.56 127.13 74.56 124.84 83.88 129.38 83.88 130.46 78.45 136.81 78.45 137.93 83.88 142.43 83.88 135.77 56.48"/><rect class="cls-1" x="109.29" y="67.6" width="4.31" height="16.28"/><polygon class="cls-1" points="119.57 56.48 119.57 72.76 113.14 56.48 109.29 56.48 109.29 65.22 113.6 67.6 120.07 83.88 123.88 83.88 123.88 56.48 119.57 56.48"/><path class="cls-1" d="M448.9,308.45l-3.23-1.31c-1.92-.77-2.27-1.46-2.27-3.69a4.1,4.1,0,0,1,.73-2.69A2.31,2.31,0,0,1,446,300a2.27,2.27,0,0,1,1.92.81,4.55,4.55,0,0,1,.65,2.92h4.31c0-2.62-.5-4.58-1.92-6a6.79,6.79,0,0,0-4.93-1.66,6.89,6.89,0,0,0-4.69,1.66,7.49,7.49,0,0,0-2.23,5.81c0,4.23,1,5.74,3.81,6.89l3.27,1.35c2.12.85,2.58,1.58,2.58,4.5L453,314c-.29-3-1.37-4.41-4.06-5.52" transform="translate(-281.65 -239.85)"/><path class="cls-1" d="M448.74,316.3a4.38,4.38,0,0,1-.73,3,2.53,2.53,0,0,1-2.08.77,2.6,2.6,0,0,1-2-.73,4.35,4.35,0,0,1-.77-3.08h-4.31c0,2.89.46,4.58,1.77,5.89a7.25,7.25,0,0,0,5.31,1.81,7.55,7.55,0,0,0,5.35-1.81c1.36-1.32,1.75-3.17,1.77-5.89Z" transform="translate(-281.65 -239.85)"/><polygon class="cls-1" points="99.17 60.36 99.17 56.48 91.97 56.48 87.67 58.85 87.67 83.88 91.98 83.88 91.98 72.02 98.17 72.02 98.17 68.14 91.98 68.14 91.98 60.36 99.17 60.36"/><polygon class="cls-1" points="106.21 56.48 101.91 58.85 101.91 83.88 106.22 83.88 106.22 56.48 106.21 56.48"/><polygon class="cls-1" points="148.51 79.99 148.51 56.48 148.5 56.48 144.2 58.85 144.2 83.88 155.71 83.88 155.71 79.99 148.51 79.99"/><polygon class="cls-1" points="43.62 56.48 39.42 56.48 35.48 72.53 39.16 74.56 41.5 63.09 43.85 74.56 39.16 74.56 34.98 74.56 32.69 83.88 37.23 83.88 38.31 78.45 44.66 78.45 45.77 83.88 50.28 83.88 43.62 56.48"/><path class="cls-1" d="M354.94,296.32H348V309.1l4.31-2.38v-6.51h2.42c2.31,0,2.89,1.69,2.89,4.46s-.58,4.43-2.89,4.43H348v14.63h4.31V313h2.58c5,0,7-2.58,7-8.31s-2.08-8.35-7-8.35" transform="translate(-281.65 -239.85)"/><polygon class="cls-1" points="54.36 83.88 58.67 83.88 58.67 60.36 54.36 62.74 54.36 83.88"/><polygon class="cls-1" points="49.78 56.48 49.78 60.36 58.67 60.36 63.28 60.36 63.28 56.48 49.78 56.48"/><polygon class="cls-1" points="0 0 0 60.3 30.2 60.3 30.2 56.48 3.83 56.48 3.83 3.83 200.26 3.83 200.26 56.48 173.89 56.48 173.89 60.3 204.09 60.3 204.09 0 0 0"/><polygon points="76.87 29.31 85.14 7.66 77.37 7.66 72.94 19.1 76.87 29.31"/><polygon points="72.28 41.21 76.68 52.64 84.45 52.64 76.24 30.98 72.28 41.21"/><polygon class="cls-2" points="65.3 52.64 57.53 52.64 66.44 29.33 58.23 7.66 66 7.66 74.34 29.33 65.3 52.64"/><polygon points="95.35 52.61 102.38 52.61 102.38 14.26 95.35 18.14 95.35 52.61"/><rect x="87.88" y="7.92" width="22.03" height="6.34"/><rect x="172.59" y="26.06" width="7.03" height="26.55"/><polygon points="189.35 7.92 189.35 34.47 178.87 7.92 172.59 7.92 172.59 22.18 179.62 26.06 190.16 52.61 196.46 52.61 196.46 7.92 189.35 7.92"/><rect x="7.63" y="26.06" width="7.03" height="26.55"/><polygon points="24.39 7.92 24.39 34.47 13.91 7.92 7.63 7.92 7.63 22.18 14.66 26.06 25.21 52.61 31.42 52.61 31.42 7.92 24.39 7.92"/><polygon points="55.15 14.26 55.15 7.92 43.4 7.92 36.38 11.79 36.38 52.61 55.15 52.61 55.15 46.27 43.41 46.27 43.41 33.28 53.52 33.28 53.52 26.94 43.41 26.94 43.41 14.26 55.15 14.26"/><polygon points="167.96 14.26 167.96 7.92 156.21 7.92 149.2 11.79 149.2 52.61 167.96 52.61 167.96 46.27 156.23 46.27 156.23 33.28 166.33 33.28 166.33 26.94 156.23 26.94 156.23 14.26 167.96 14.26"/><path d="M426.43,258.26a11,11,0,0,0-1-4.8,10.08,10.08,0,0,0-2.64-3.44,11.53,11.53,0,0,0-3.68-2.05,12.48,12.48,0,0,0-8.22,0,11.51,11.51,0,0,0-3.67,2.05,10.06,10.06,0,0,0-2.64,3.44,11,11,0,0,0-1,4.8V282a10.91,10.91,0,0,0,1,4.83,10.12,10.12,0,0,0,2.64,3.41,11.52,11.52,0,0,0,3.67,2.05,12.5,12.5,0,0,0,8.22,0,11.53,11.53,0,0,0,3.68-2.05,10.14,10.14,0,0,0,2.64-3.41,10.92,10.92,0,0,0,1-4.83V267.86h-6L415,271.69v1.86h4.65V282a4.16,4.16,0,0,1-1.37,3.44,5.3,5.3,0,0,1-6.48,0,4.16,4.16,0,0,1-1.37-3.44V258.26a4.16,4.16,0,0,1,1.37-3.44,5.3,5.3,0,0,1,6.48,0,4.17,4.17,0,0,1,1.37,3.44v2.27h6.81Z" transform="translate(-281.65 -239.85)"/><polygon points="173.92 81.89 174.03 81.39 176.33 81.39 176.22 81.89 175.4 81.89 174.92 84.15 174.31 84.15 174.78 81.89 173.92 81.89"/><polygon points="177.48 81.39 177.69 83.38 177.7 83.38 178.76 81.39 179.61 81.39 179.02 84.15 178.46 84.15 178.96 81.95 178.96 81.95 177.79 84.15 177.32 84.15 177.06 81.95 177.05 81.95 176.63 84.15 176.06 84.15 176.64 81.39 177.48 81.39"/></svg>