<svg id="Layer_1" data-name="Layer 1" xmlns="http://www.w3.org/2000/svg" viewBox="0 0 130.39 185.91"><defs><style>.cls-1{fill:#fff;}.cls-2{fill:#00326c;}.cls-3{fill:#00aeef;}.cls-4{fill:#d22630;}.cls-5{fill:#171c8f;}</style></defs><title>NITTO_ATP_FINALS_POS_RGB_L</title><path class="cls-1" d="M77.38,121.73V100.42a8.93,8.93,0,0,1,8.9-8.9H197.36a8.93,8.93,0,0,1,8.9,8.9v21.31Z" transform="translate(-76.63 -90.76)"/><path class="cls-2" d="M78.14,100.42a8.2,8.2,0,0,1,8.15-8.16H197.36a8.2,8.2,0,0,1,8.15,8.16V121H78.14Zm119.23-9.66H86.29a9.69,9.69,0,0,0-9.66,9.66V267a9.68,9.68,0,0,0,9.66,9.65H197.36A9.69,9.69,0,0,0,207,267V100.42a9.69,9.69,0,0,0-9.66-9.66" transform="translate(-76.63 -90.76)"/><path class="cls-1" d="M116.34,226.71l-9.82,12.67h12.43ZM124.43,249c-3.47-.16-3.61-1.07-4.12-3.12l-.43-1.93H103l-1.52,1.93C98.85,249.21,99.07,249,90,249l19.65-24.16c2.6-3.22,3-3.39,7.81-3.39h4.84l7,27.54c-3,0-3.83,0-4.84,0" transform="translate(-76.63 -90.76)"/><path class="cls-1" d="M161.13,224.41a3.08,3.08,0,0,1-1.23,1.5c-.87.54-2.38.64-5.27.64h-4.7L143.5,249c-7.44,0-8-.16-6.79-4.29l5.2-18.2H131.29c1.37-4.62,1.73-5,7-5H162a25.25,25.25,0,0,1-.87,2.84" transform="translate(-76.63 -90.76)"/><path class="cls-1" d="M179.12,226.5h-6.29l-2.46,8.59h6.43c7.59,0,7.66.06,8.89-4.4.58-1.88.65-4.19-6.57-4.19m-3.61,13.43H169l-1.38,4.72-1.3,4.4c-1.52,0-5.63.21-6.86-.59-.72-.59-.65-1.61,0-3.82l5.35-18.74c.65-2.2.8-4,4.77-4.3.87,0,2.1,0,3.76,0h7c14.74,0,14.81,5.2,13.66,9.13s-3.61,9.24-18.5,9.24" transform="translate(-76.63 -90.76)"/><path class="cls-3" d="M95.74,162.28l-.49-.32a2.34,2.34,0,0,0-.94-1.79v-1.27c0-.54,0-1,0-1.48s0-.75,0-1,.14-.27.27-.26a4.41,4.41,0,0,1,.84.67A7.21,7.21,0,0,0,97.17,158a3.57,3.57,0,0,0,2,.59c.27,0,.49,0,.69,0a.82.82,0,0,1,.46.23c.07.07.08.17,0,.38a3.72,3.72,0,0,1-.67.74c-.06.06-1.8,1.5-2.67,2.31ZM96,138.1c1.27-3.15,5.88-12,12.88-8.83,6.2,2.82,5.78,11.47,3.29,16.87-3.62,7.84-9.2,12.85-14.46,9.93-5.61-3.11-3.71-13-1.71-18M198.45,169c-.19-.72-1.29-1.1-1.29-1.1,0-.88-1.26-1.17-1.26-1.17l-.07-.09c-.25-1-1.35-.76-1.35-.76v-.22c-.19-.66-1.23-.44-1.23-.44-.47-.79-1.39-.09-1.39-.09a1,1,0,0,1-.85.53c-1.35.07-1.48.79-1.48.79l-.35,1c-.85,1.77-.38,2.46-.38,2.46a9.05,9.05,0,0,1,.44,1,11.6,11.6,0,0,0,.63,2.55c-.73.13-.85,1-.85,1-.23.82-2.71,3.52-2.71,3.52-.66.35-.19,1.2-.19,1.2a20.17,20.17,0,0,1-3.6,3,46,46,0,0,0-8.77,7.54,20.39,20.39,0,0,0-7,.22l0-.44a22,22,0,0,0-4.54,1.77,2.74,2.74,0,0,1-1.55,0c-3.35-1.77-9.33-1.23-9.33-1.23a32.43,32.43,0,0,0-3.79,1l-5.85.26-.35-1c-.12-.28-.57-.45-.57-.45h-.06a4,4,0,0,0-.13-1l-.14-3.57,1.49-2c.45,0-.35-4.84-.35-4.84.14-.75-1.1-3.52-1.1-3.52a4.15,4.15,0,0,0-1.13-3.52,6.63,6.63,0,0,1-1-1.79c-.17-.71-2.33-1.86-3.81-2.37s-4.18,0-7.32,2-3.72,6.23-3.72,6.86,1.14,3.79,1,3.83-.71-.19-.27,1.6,2.63,3.15,2.63,3.15c.47.15,1.38,3.29,1.74,4.62l-.41.16-.33.63-.76.57a10.25,10.25,0,0,1-1.77.19,20,20,0,0,0-8.5-.22l-4.59-2.32-.31.47a11.09,11.09,0,0,0-4.14-.5s-3.29-6.61-6.3-9l0-.24h0c.27-.18,0-.87,0-1.22s-.94-1.41-.94-1.41l-1.3-2.09s-.44-1-.61-1.65a.42.42,0,0,0-.69-.26c-.24-.69-.31-1.41-.08-1.59a32.79,32.79,0,0,0,1.42-5c.07-.58-1-2.8-1.21-3.34,1.34-1.18,3.86-3.38,4.51-3.76,5-3,9.4-6.86,11.47-12.44,3.25-8.75,1.65-16.26-4-19.13l-.22-.11-.27-.13-.24-.11c-5.41-1.84-11.58,1.26-15.4,9.7-2.45,5.41-2.56,11.16-1.23,17.22a22.15,22.15,0,0,1,.28,5.38h0l0,.38-1.57.27c-.64.29-.48.73-.48.73l.41,2.38-.07.08a.94.94,0,0,0-.77,1l-.07.08c-.82.14-.77,1.38-.77,1.38a1,1,0,0,0-.74,1.4c-.84.55-.13,1.31.11,1.72s1.34,2.87,1.34,2.87L89,175c-1.61,3.9-3.21,7.77-3.22,7.77a.62.62,0,0,1-.24.3l-.18.11s-.14.11-.18.47a4.4,4.4,0,0,0,1.73,1.18c.88.45,1.24.51,1.55.46.21-.27.21-.4.2-.47s0-.14,0-.21a.69.69,0,0,1,0-.36l2.59-6.38h0l1-2.38.22.28a.36.36,0,0,0-.19.52c.16.42.16.63.37.84a1.25,1.25,0,0,1,.42.74c.11.42,0,1.11.16,1.32l.27.41c.07.46.32.91.42,1.59s.33.45.33.45l.12,0c1.16,2.84,4.18,11,8.45,14.95a8.76,8.76,0,0,1,3.14,1.35l-.09.14-.32.54s1.08.54,1.94,1.08a64.14,64.14,0,0,0,6.76,3.63l1.23,6.39,38.11-.31c.1-.68.17-1.07.17-1.07.54-3.37,3.94-4.94,3.94-4.94.79-.54,7.63-1.3,7.63-1.3l0-.53c8.48-1.89,12.68-5.08,12.68-5.08,1.7-.28,1.89-.72,1.89-.72a9.21,9.21,0,0,1,1.2-1.08c4.86-3.28,10-12.37,10-12.37a1,1,0,0,0,1.35-.69c.41-.57,2.78-3.62,2.78-3.62.69-.63.28-1.13.28-1.13l-.35-.44.13-.13c.31-.35.73-1.54.95-1.8a15.92,15.92,0,0,0,.92-1.77,20.69,20.69,0,0,1,.88-2,2.06,2.06,0,0,0,.41-1.67" transform="translate(-76.63 -90.76)"/><path class="cls-1" d="M142.2,210c19.41,0,37.42,4,52.23,10.86-14-9.25-32.26-14.84-52.23-14.84S104,211.58,90,220.82C104.78,214,122.78,210,142.2,210" transform="translate(-76.63 -90.76)"/><polygon class="cls-4" points="60.63 7.83 52.86 7.83 51.84 11.59 59.62 11.59 60.63 7.83"/><path class="cls-5" d="M149.31,107.79h4.08l.85-3.15h-4.08l1.13-4.21h-7.42l-1.13,4.21h-3.45l-.85,3.15h3.45L140.74,112c-.91,3.39.39,5.35,5.89,5.35,1.39,0,2.82,0,4.23-.05l.82-3-1.35,0c-1.45,0-1.74-.14-2.06-.48-.5-.54-.13-1.65,0-2.08Z" transform="translate(-76.63 -90.76)"/><path class="cls-5" d="M92.56,95.5l0,.12a4.09,4.09,0,0,1,1.77,4.88l-4.51,16.77h8.08l4.27-15.89,3.65,9.33c1.83,4.1,3.69,6.56,10.32,6.56h4.11l5.86-21.77H118l-4.28,16-3.33-8.67c-1.39-4.18-3.72-7.38-10.62-7.38Z" transform="translate(-76.63 -90.76)"/><path class="cls-5" d="M135.63,104.64h-7.78l-2,7.36c-.91,3.39.39,5.35,5.89,5.35,1.4,0,2.82,0,4.23-.06l.82-3-1.32,0c-1.14,0-1.43-.14-1.74-.48-.5-.54-.13-1.65,0-2.08Z" transform="translate(-76.63 -90.76)"/><path class="cls-5" d="M165.68,107.79h4.08l.85-3.15h-4.08l1.13-4.21h-7.42l-1.14,4.21h-3.45l-.85,3.15h3.45L157.11,112c-.91,3.39.38,5.35,5.89,5.35,1.4,0,2.82,0,4.23-.05l.82-3-1.35,0c-1.45,0-1.75-.14-2.06-.48-.5-.54-.13-1.65,0-2.08Z" transform="translate(-76.63 -90.76)"/><path class="cls-5" d="M183.75,104.21a20.1,20.1,0,0,0-9.17,1.83,7.68,7.68,0,0,0-4.21,4.8c-1,4.27,2.78,6.68,10,6.68,7.42,0,12.28-2.41,13.29-6.71S190.95,104.21,183.75,104.21Zm2,6.64c-.59,2.23-2,4.09-4.83,4.09-1.54,0-2.28-.47-2.65-1.36a4.44,4.44,0,0,1,0-2.76c.6-2.23,2-4,4.81-4S186.34,108.61,185.74,110.85Z" transform="translate(-76.63 -90.76)"/><path class="cls-3" d="M104.84,252.68H97.39c-.84,0-1.48,0-2,0-2,.15-2.13,1.15-2.47,2.52L90.1,266.19c-.31,1.22-.34,1.81,0,2.12.61.47,2.78.34,3.58.34l1.74-6.7h9.19c.72-2.68.57-2.87-2.35-2.87H96.21l.87-3.49H107a11.89,11.89,0,0,0,.42-1.65c.15-1.34-1.1-1.25-2.58-1.25" transform="translate(-76.63 -90.76)"/><path class="cls-3" d="M111.53,252.68,108,266.19c-.61,2.37-.31,2.46,3.65,2.46l3.53-13.6c.61-2.27.27-2.37-3.68-2.37" transform="translate(-76.63 -90.76)"/><path class="cls-3" d="M133.94,254.87l-2.36,9.07L126,254.37c-1-1.78-1.37-1.72-3.8-1.72h-2l-2.62,10.13-.91,3.37c-.61,2.4-.31,2.49,3.64,2.49l3-11.38,5.62,9.51c.91,1.62,1,1.87,3.65,1.87h2.09l4.18-16c-3.92,0-4.34.06-4.86,2.21" transform="translate(-76.63 -90.76)"/><path class="cls-3" d="M171.13,265.78h-4.33l2.74-10.57c.34-1.25.38-1.88,0-2.19-.61-.47-2.77-.34-3.61-.34l-3.49,13.48c-.64,2.49-.12,2.49,3,2.49h8.09c.15-.59.68-2,.19-2.46-.3-.31-1-.41-2.55-.41" transform="translate(-76.63 -90.76)"/><path class="cls-3" d="M179.12,257.45c-.87,3.78,3.72,3.93,7,4.49,1.22.22,3.46.78,3.11,2.12-.07.28-.26,1.28-.72,1.47a23.88,23.88,0,0,1-3.91.15h-3.8c-1.52,0-2.31.06-2.77.4s-.73.94-1.14,2.59h7c6.34,0,9-2.37,9.56-4.77,1.19-4.52-5.2-4.18-8.73-5.14-1.1-.32-1.44-.84-1.32-1.34.07-.25.26-1.46.75-1.65a17.5,17.5,0,0,1,3.61-.19h4.1c2.89,0,3.12-.19,3.84-2.93h-7.07c-5.69,0-8.81,1.78-9.53,4.8" transform="translate(-76.63 -90.76)"/><path class="cls-3" d="M155.54,252.65H153c-2.5,0-2.73.1-4.1,2l-10.33,14c4.79,0,4.67.09,6.08-1.84l.79-1.12h8.86l.23,1.12c.27,1.18.34,1.72,2.17,1.81.53,0,1,0,2.55,0ZM147.26,263l5.17-7.36L153.8,263Z" transform="translate(-76.63 -90.76)"/><path class="cls-1" d="M197.29,270.38h-.8l.1-.48h2.14l-.1.48h-.77l-.44,2.11h-.56Z" transform="translate(-76.63 -90.76)"/><path class="cls-1" d="M199,269.91h.78l.2,1.87h0l1-1.87h.79l-.54,2.59h-.53l.46-2.06h0l-1.08,2.06h-.43l-.25-2.06h0l-.38,2.06h-.53Z" transform="translate(-76.63 -90.76)"/></svg>